# Blender v2.79 (sub 0) OBJ File: 'pinball.blend'
# www.blender.org
o Plane.019_Plane.021
v -0.243663 -0.041531 -0.338241
v -0.245547 -0.041531 -0.338241
v -0.243663 0.009590 0.078101
v -0.245547 0.009590 0.078101
v -0.243663 0.038932 0.074498
v -0.243663 -0.012188 -0.341844
v -0.245547 -0.012188 -0.341844
v -0.245547 0.038932 0.074498
vn 0.0000 -0.9925 0.1219
vn 0.0000 0.9925 -0.1219
vn -1.0000 -0.0000 0.0000
vn 1.0000 0.0000 0.0000
vn 0.0000 0.1219 0.9925
vn 0.0000 -0.1219 -0.9925
s off
f 3//1 2//1 1//1
f 7//2 5//2 6//2
f 4//3 7//3 2//3
f 1//4 5//4 3//4
f 3//5 8//5 4//5
f 2//6 6//6 1//6
f 3//1 4//1 2//1
f 7//2 8//2 5//2
f 4//3 8//3 7//3
f 1//4 6//4 5//4
f 3//5 5//5 8//5
f 2//6 7//6 6//6
o Plane.018_Plane.007
v 0.224713 0.011024 0.089784
v 0.281051 0.030059 0.244808
v 0.224713 0.040366 0.086181
v 0.281051 0.059401 0.241206
vn -0.9407 0.0413 0.3368
vn -0.9407 0.0414 0.3368
s off
f 10//7 11//7 9//7
f 10//8 12//8 11//8
o Circle.012_Circle.014
v -0.281051 0.034008 0.276973
v -0.271474 0.042873 0.349172
v -0.281051 0.063350 0.273371
v -0.271474 0.072215 0.345570
vn -0.9914 0.0159 0.1296
s off
f 14//9 15//9 13//9
f 14//9 16//9 15//9
o Circle.011_Circle.013
v -0.271474 0.042873 0.349172
v -0.243397 0.051134 0.416451
v -0.271474 0.072215 0.345570
v -0.243397 0.080476 0.412849
vn -0.9239 0.0466 0.3798
s off
f 18//10 19//10 17//10
f 18//10 20//10 19//10
o Circle.010_Circle.012
v -0.243397 0.051134 0.416451
v -0.198733 0.058228 0.474225
v -0.243397 0.080476 0.412849
v -0.198733 0.087570 0.470622
vn -0.7934 0.0742 0.6042
s off
f 22//11 23//11 21//11
f 22//11 24//11 23//11
o Circle.009_Circle.011
v -0.198733 0.058228 0.474225
v -0.140526 0.063671 0.518556
v -0.198733 0.087570 0.470622
v -0.140526 0.093013 0.514954
vn -0.6088 0.0967 0.7874
s off
f 26//12 27//12 25//12
f 26//12 28//12 27//12
o Circle.008_Circle.010
v -0.140526 0.063671 0.518556
v -0.072742 0.067092 0.546424
v -0.140526 0.093013 0.514954
v -0.072742 0.096435 0.542821
vn -0.3827 0.1126 0.9170
s off
f 30//13 31//13 29//13
f 30//13 32//13 31//13
o Circle.007_Circle.009
v 0.000000 0.068260 0.555930
v -0.072742 0.067092 0.546424
v 0.000000 0.097602 0.552327
v -0.072742 0.096435 0.542821
vn -0.1305 0.1208 0.9841
s off
f 33//14 36//14 34//14
f 33//14 35//14 36//14
o Circle.006_Circle.008
v 0.000000 0.068260 0.555930
v 0.072741 0.067092 0.546424
v 0.000000 0.097602 0.552327
v 0.072741 0.096435 0.542822
vn 0.1305 0.1208 0.9841
s off
f 38//15 39//15 37//15
f 38//15 40//15 39//15
o Circle.005_Circle.007
v 0.072741 0.067092 0.546424
v 0.140526 0.063671 0.518556
v 0.072741 0.096435 0.542822
v 0.140526 0.093013 0.514954
vn 0.3827 0.1126 0.9170
s off
f 42//16 43//16 41//16
f 42//16 44//16 43//16
o Circle.004_Circle.006
v 0.140526 0.063671 0.518556
v 0.198733 0.058228 0.474225
v 0.140526 0.093013 0.514954
v 0.198733 0.087570 0.470622
vn 0.6088 0.0967 0.7874
s off
f 46//17 47//17 45//17
f 46//17 48//17 47//17
o Circle.003_Circle.005
v 0.198733 0.058228 0.474225
v 0.243397 0.051134 0.416451
v 0.198733 0.087570 0.470622
v 0.243397 0.080476 0.412849
vn 0.7934 0.0742 0.6042
s off
f 50//18 51//18 49//18
f 50//18 52//18 51//18
o Circle.002_Circle.004
v 0.243397 0.051134 0.416451
v 0.271474 0.042873 0.349173
v 0.243397 0.080476 0.412849
v 0.271474 0.072215 0.345570
vn 0.9239 0.0466 0.3798
s off
f 54//19 55//19 53//19
f 54//19 56//19 55//19
o Circle.001_Circle.003
v 0.271474 0.042873 0.349173
v 0.281051 0.034008 0.276973
v 0.271474 0.072215 0.345570
v 0.281051 0.063350 0.273371
vn 0.9914 0.0159 0.1296
s off
f 58//20 59//20 57//20
f 58//20 60//20 59//20
o Plane.015_Plane.003
v 0.209103 0.001909 0.015545
v 0.244301 0.003405 0.027730
v 0.241670 -0.009471 -0.077136
v 0.276868 -0.007975 -0.064952
v 0.241670 0.019871 -0.080739
v 0.209103 0.031251 0.011943
v 0.244301 0.032747 0.024127
v 0.276868 0.021367 -0.068555
vn -0.0000 -0.9925 0.1219
vn -0.0000 0.9925 -0.1219
vn 0.9442 0.0401 0.3269
vn -0.9442 -0.0401 -0.3269
vn 0.3293 -0.1151 -0.9372
vn -0.3293 0.1151 0.9372
s off
f 61//21 64//21 62//21
f 66//22 68//22 65//22
f 64//23 67//23 62//23
f 61//24 65//24 63//24
f 63//25 68//25 64//25
f 62//26 66//26 61//26
f 61//21 63//21 64//21
f 66//22 67//22 68//22
f 64//23 68//23 67//23
f 61//24 66//24 65//24
f 63//25 65//25 68//25
f 62//26 67//26 66//26
o Plane.014_Plane.001
v 0.280766 -0.021640 -0.176240
v 0.222416 -0.016066 -0.130849
v 0.280766 -0.009865 -0.080345
v 0.242015 -0.009865 -0.080345
v 0.280766 0.019477 -0.083948
v 0.280766 0.007703 -0.179843
v 0.222416 0.013276 -0.134452
v 0.242015 0.019477 -0.083948
vn -0.0000 -0.9925 0.1219
vn 0.0000 0.9925 -0.1219
vn 1.0000 -0.0000 0.0000
vn 0.0000 0.1219 0.9925
vn -0.6169 -0.0959 -0.7812
vn -0.9332 0.0438 0.3568
s off
f 71//27 70//27 69//27
f 75//28 73//28 74//28
f 69//29 73//29 71//29
f 71//30 76//30 72//30
f 70//31 74//31 69//31
f 72//32 75//32 70//32
f 71//27 72//27 70//27
f 75//28 76//28 73//28
f 69//29 74//29 73//29
f 71//30 73//30 76//30
f 70//31 75//31 74//31
f 72//32 76//32 75//32
o Plane.004_Plane.010
v -0.280766 -0.039262 -0.319760
v -0.280766 0.068093 0.554572
v -0.280766 -0.009919 -0.323363
v -0.280766 0.097435 0.550970
vn -1.0000 0.0000 0.0000
s off
f 78//33 79//33 77//33
f 78//33 80//33 79//33
o Plane.003_Plane.009
v 0.280766 -0.039262 -0.319760
v 0.280766 0.068093 0.554572
v 0.280766 0.097435 0.550970
v 0.280766 -0.009919 -0.323363
vn 1.0000 0.0000 0.0000
s off
f 81//34 83//34 82//34
f 81//34 84//34 83//34
o Plane.001_Plane.008
v 0.281565 0.068093 0.554572
v -0.281565 0.068093 0.554572
v -0.281565 0.097435 0.550970
v 0.281565 0.097435 0.550970
vn 0.0000 0.1219 0.9925
s off
f 85//35 87//35 86//35
f 85//35 88//35 87//35
