# Blender v2.79 (sub 0) OBJ File: 'pinball.blend'
# www.blender.org
o BezierCurve.051_CUBezierCurve.143
v 0.003807 0.125055 0.538583
v 0.060351 0.124710 0.529947
v 0.018027 0.139752 0.502436
vn 0.0664 0.9149 0.3981
s 1
f 1//1 2//1 3//1
o BezierCurve.050_CUBezierCurve.142
v -0.052039 0.123675 0.532156
v 0.003807 0.125055 0.538583
v -0.037818 0.141430 0.495633
v 0.018027 0.139752 0.502436
vn -0.0387 0.9206 0.3885
vn -0.0491 0.9165 0.3970
vn -0.0700 0.9076 0.4139
vn -0.0172 0.9286 0.3707
s 1
f 5//2 6//3 4//4
f 5//2 7//5 6//3
o BezierCurve.049_CUBezierCurve.141
v -0.104791 0.119944 0.511931
v -0.052039 0.123675 0.532156
v -0.090570 0.140790 0.475029
v -0.037818 0.141430 0.495633
vn -0.1859 0.8997 0.3949
vn -0.1958 0.8952 0.4003
vn -0.2211 0.8831 0.4137
vn -0.1597 0.9108 0.3806
s 1
f 9//6 10//7 8//8
f 9//6 11//9 10//7
o BezierCurve.048_CUBezierCurve.140
v -0.152219 0.112887 0.479216
v -0.104791 0.119944 0.511931
v -0.137999 0.135069 0.452446
v -0.090570 0.140790 0.475029
vn -0.3483 0.8338 0.4282
vn -0.3551 0.8446 0.4006
vn -0.3312 0.8054 0.4915
vn -0.3672 0.8633 0.3461
s 1
f 12//10 15//11 14//12
f 12//10 13//13 15//11
o BezierCurve.047_CUBezierCurve.139
v -0.153465 0.024851 -0.231823
v -0.166000 0.008002 -0.224517
v -0.162908 0.022986 -0.247346
v -0.172323 0.005404 -0.245801
vn 0.7812 -0.5652 -0.2651
vn 0.7764 -0.5700 -0.2690
vn 0.6803 -0.6516 -0.3356
vn 0.8571 -0.4762 -0.1965
s 1
f 17//14 18//15 16//16
f 17//14 19//17 18//15
o BezierCurve.046_CUBezierCurve.138
v -0.196883 0.021858 -0.217138
v -0.190312 0.007555 -0.222278
v -0.195493 0.002824 -0.260804
v -0.198447 0.016293 -0.262458
vn -0.9112 -0.4002 0.0974
vn -0.9573 -0.2534 0.1387
vn -0.9689 -0.1936 0.1541
vn -0.8935 -0.4410 0.0850
s 1
f 21//18 23//19 22//20
f 21//18 20//21 23//19
o BezierCurve.045_CUBezierCurve.137
v 0.278966 0.070934 0.125933
v 0.261112 0.047584 0.127773
v -0.153465 0.024851 -0.231823
v -0.166000 0.008002 -0.224517
vn 0.5830 -0.4998 -0.6405
vn 0.5269 -0.6327 -0.5675
vn 0.5839 -0.4971 -0.6418
vn 0.5253 -0.6359 -0.5654
s 1
f 25//22 26//23 24//24
f 25//22 27//25 26//23
o BezierCurve.044_CUBezierCurve.136
v -0.196883 0.021858 -0.217138
v -0.190312 0.007555 -0.222278
v 0.243413 0.046634 0.127488
v 0.220199 0.064525 0.124083
vn -0.5053 -0.5245 0.6852
vn -0.5208 -0.4913 0.6981
vn -0.5051 -0.5250 0.6850
vn -0.5212 -0.4904 0.6984
s 1
f 31//26 29//27 30//28
f 31//26 28//29 29//27
o BezierCurve.043_CUBezierCurve.135
v 0.243307 0.060962 0.235539
v 0.221237 0.078739 0.228939
v 0.243413 0.046634 0.127488
v 0.220199 0.064525 0.124083
vn -0.6381 -0.7631 0.1020
vn -0.6211 -0.7760 0.1098
vn -0.6421 -0.7600 0.1001
vn -0.6168 -0.7791 0.1117
s 1
f 33//30 34//31 32//32
f 33//30 35//33 34//31
o BezierCurve.042_CUBezierCurve.134
v 0.219733 0.073826 0.323817
v 0.198129 0.091490 0.313394
v 0.243307 0.060962 0.235539
v 0.221237 0.078739 0.228939
vn -0.6173 -0.7851 -0.0504
vn -0.6174 -0.7850 -0.0504
vn -0.6175 -0.7850 -0.0504
s 1
f 39//34 36//35 37//36
f 39//34 38//34 36//35
o BezierCurve.041_CUBezierCurve.133
v 0.219733 0.073826 0.323817
v 0.187048 0.083660 0.393584
v 0.166899 0.101192 0.378778
v 0.198129 0.091490 0.313394
vn -0.5790 -0.7998 -0.1584
vn -0.5786 -0.8002 -0.1578
vn -0.5791 -0.7996 -0.1586
vn -0.5784 -0.8004 -0.1575
s 1
f 42//37 40//38 41//39
f 42//37 43//40 40//38
o BezierCurve.040_CUBezierCurve.132
v 0.147316 0.090025 0.446013
v 0.129934 0.107531 0.426631
v 0.187048 0.083660 0.393584
v 0.166899 0.101192 0.378778
vn -0.5046 -0.8156 -0.2829
vn -0.5043 -0.8162 -0.2819
vn -0.5048 -0.8153 -0.2836
vn -0.5040 -0.8166 -0.2811
s 1
f 45//41 46//42 44//43
f 45//41 47//44 46//42
o BezierCurve.039_CUBezierCurve.131
v 0.102560 0.093359 0.482218
v 0.147316 0.090025 0.446013
v 0.089355 0.111404 0.458658
v 0.129934 0.107531 0.426631
vn -0.3929 -0.8251 -0.4060
vn -0.3928 -0.8272 -0.4018
vn -0.3930 -0.8230 -0.4100
vn -0.3926 -0.8295 -0.3971
s 1
f 50//45 49//46 48//47
f 50//45 51//48 49//46
o BezierCurve.038_CUBezierCurve.130
v 0.054739 0.095305 0.503174
v 0.102560 0.093359 0.482218
v 0.046829 0.114034 0.476569
v 0.089355 0.111404 0.458658
vn -0.2552 -0.8287 -0.4981
vn -0.2580 -0.8269 -0.4997
vn -0.2624 -0.8240 -0.5021
vn -0.2511 -0.8313 -0.4959
s 1
f 55//49 52//50 54//51
f 55//49 53//52 52//50
o BezierCurve.037_CUBezierCurve.129
v 0.054739 0.095305 0.503174
v 0.005760 0.095856 0.510007
v 0.003696 0.115264 0.481916
v 0.046829 0.114034 0.476569
vn -0.0892 -0.8249 -0.5581
vn -0.0905 -0.8241 -0.5591
vn -0.0930 -0.8223 -0.5613
vn -0.0869 -0.8266 -0.5560
s 1
f 59//53 57//54 58//55
f 59//53 56//56 57//54
o BezierCurve.036_CUBezierCurve.128
v -0.042462 0.094706 0.503822
v -0.038682 0.114828 0.475839
v 0.005760 0.095856 0.510007
v 0.003696 0.115264 0.481916
vn 0.0918 -0.8153 -0.5716
vn 0.0915 -0.8150 -0.5721
vn 0.0906 -0.8143 -0.5733
vn 0.0926 -0.8160 -0.5706
s 1
f 63//57 60//58 61//59
f 63//57 62//60 60//58
o BezierCurve.035_CUBezierCurve.127
v -0.042462 0.094706 0.503822
v -0.087985 0.091305 0.485720
v -0.078712 0.112245 0.459281
v -0.038682 0.114828 0.475839
vn 0.2733 -0.7982 -0.5368
vn 0.2733 -0.7983 -0.5367
vn 0.2734 -0.7984 -0.5364
vn 0.2732 -0.7981 -0.5370
s 1
f 67//61 65//62 66//63
f 67//61 64//64 65//62
o BezierCurve.034_CUBezierCurve.126
v -0.128835 0.084806 0.456836
v -0.114615 0.106847 0.433215
v -0.087985 0.091305 0.485720
v -0.078712 0.112245 0.459281
vn 0.4447 -0.7719 -0.4543
vn 0.4448 -0.7721 -0.4538
vn 0.4450 -0.7725 -0.4529
vn 0.4445 -0.7715 -0.4551
s 1
f 71//65 68//66 69//67
f 71//65 70//68 68//66
o BezierCurve.033_CUBezierCurve.125
v -0.163038 0.074540 0.418297
v -0.144583 0.098272 0.398636
v -0.128835 0.084806 0.456836
v -0.114615 0.106847 0.433215
vn 0.5922 -0.7351 -0.3301
vn 0.5922 -0.7349 -0.3304
vn 0.5922 -0.7347 -0.3310
vn 0.5922 -0.7353 -0.3296
s 1
f 75//69 72//70 73//71
f 75//69 74//72 72//70
o BezierCurve.032_CUBezierCurve.124
v -0.186808 0.061478 0.371018
v -0.163038 0.074540 0.418297
v -0.166884 0.087185 0.356368
v -0.144583 0.098272 0.398636
vn 0.7103 -0.6808 -0.1789
vn 0.7121 -0.6766 -0.1872
vn 0.7151 -0.6692 -0.2017
vn 0.7072 -0.6872 -0.1657
s 1
f 79//73 76//74 78//75
f 79//73 77//76 76//74
o BezierCurve.031_CUBezierCurve.123
v -0.190942 0.047141 0.315817
v -0.186808 0.061478 0.371018
v -0.179821 0.074777 0.306980
v -0.166884 0.087185 0.356368
vn 0.8484 -0.5289 0.0190
vn 0.8782 -0.4754 -0.0515
vn 0.9036 -0.4066 -0.1345
vn 0.8112 -0.5778 0.0893
s 1
f 83//77 80//78 82//79
f 83//77 81//80 80//78
o BezierCurve.030_CUBezierCurve.122
v -0.190942 0.047141 0.315817
v -0.185453 0.032883 0.253496
v -0.181574 0.062483 0.250770
v -0.179821 0.074777 0.306980
vn 0.9776 -0.1870 0.0967
vn 0.9554 -0.2867 0.0700
vn 0.9863 -0.1187 0.1140
vn 0.9319 -0.3592 0.0495
s 1
f 86//81 84//82 85//83
f 86//81 87//84 84//82
o BezierCurve.029_CUBezierCurve.121
v -0.169135 0.020992 0.184727
v -0.170038 0.052100 0.187898
v -0.185453 0.032883 0.253496
v -0.181574 0.062483 0.250770
vn 0.9747 -0.0226 0.2224
vn 0.9753 -0.0783 0.2062
vn 0.9731 0.0048 0.2301
vn 0.9743 -0.1095 0.1968
s 1
f 89//85 90//86 88//87
f 89//85 91//88 90//86
o BezierCurve.028_CUBezierCurve.120
v 0.267250 0.086432 0.237829
v 0.278966 0.070934 0.125933
v 0.250326 0.062135 0.236895
v 0.261112 0.047584 0.127773
vn 0.8041 -0.5719 0.1622
vn 0.7932 -0.5881 0.1581
vn 0.8066 -0.5681 0.1631
vn 0.7904 -0.5920 0.1570
s 1
f 94//89 93//90 92//91
f 94//89 95//92 93//90
o BezierCurve.026_CUBezierCurve.119
v 0.243008 0.100543 0.330739
v 0.226579 0.075207 0.326463
v 0.267250 0.086432 0.237829
v 0.250326 0.062135 0.236895
vn 0.7806 -0.5548 0.2879
s 1
f 97//93 98//93 96//93
f 97//93 99//93 98//93
o BezierCurve.025_CUBezierCurve.118
v 0.208414 0.111644 0.405852
v 0.243008 0.100543 0.330739
v 0.226579 0.075207 0.326463
v 0.193381 0.085254 0.397714
vn 0.7290 -0.5434 0.4161
vn 0.7291 -0.5432 0.4162
vn 0.7290 -0.5436 0.4161
vn 0.7292 -0.5431 0.4163
s 1
f 103//94 101//95 100//96
f 103//94 102//97 101//95
o BezierCurve.024_CUBezierCurve.117
v 0.165112 0.119136 0.463891
v 0.152682 0.091796 0.451697
v 0.208414 0.111644 0.405852
v 0.193381 0.085254 0.397714
vn 0.6419 -0.5360 0.5483
vn 0.6420 -0.5354 0.5487
vn 0.6418 -0.5363 0.5481
vn 0.6421 -0.5351 0.5489
s 1
f 105//98 106//99 104//100
f 105//98 107//101 106//99
o BezierCurve.023_CUBezierCurve.116
v 0.114990 0.122983 0.505217
v 0.165112 0.119136 0.463891
v 0.152682 0.091796 0.451697
v 0.106471 0.095116 0.489322
vn 0.5110 -0.5369 0.6713
vn 0.5109 -0.5348 0.6730
vn 0.5111 -0.5384 0.6700
vn 0.5108 -0.5331 0.6744
s 1
f 111//102 109//103 108//104
f 111//102 110//105 109//103
o BezierCurve.022_CUBezierCurve.115
v 0.060351 0.124710 0.529947
v 0.056801 0.096925 0.511317
v 0.114990 0.122983 0.505217
v 0.106471 0.095116 0.489322
vn 0.3270 -0.5505 0.7681
vn 0.3255 -0.5461 0.7719
vn 0.3285 -0.5546 0.7645
vn 0.3238 -0.5415 0.7758
s 1
f 113//106 114//107 112//108
f 113//106 115//109 114//107
o BezierCurve.021_CUBezierCurve.114
v 0.003807 0.125055 0.538583
v 0.060351 0.124710 0.529947
v 0.056801 0.096925 0.511317
v 0.005777 0.097343 0.518652
vn 0.1178 -0.5704 0.8128
vn 0.1157 -0.5672 0.8154
vn 0.1202 -0.5740 0.8100
vn 0.1130 -0.5632 0.8185
s 1
f 119//110 117//111 116//112
f 119//110 118//113 117//111
o BezierCurve.020_CUBezierCurve.113
v -0.052039 0.123675 0.532156
v -0.044500 0.096051 0.512414
v 0.003807 0.125055 0.538583
v 0.005777 0.097343 0.518652
vn -0.0801 -0.5909 0.8027
vn -0.0821 -0.5887 0.8041
vn -0.0775 -0.5936 0.8010
vn -0.0850 -0.5857 0.8060
s 1
f 121//114 122//115 120//116
f 121//114 123//117 122//115
o BezierCurve.019_CUBezierCurve.112
v -0.104791 0.119944 0.511931
v -0.052039 0.123675 0.532156
v -0.044500 0.096051 0.512414
v -0.091963 0.092479 0.493751
vn -0.2470 -0.6104 0.7526
vn -0.2485 -0.6091 0.7531
vn -0.2449 -0.6121 0.7519
vn -0.2507 -0.6072 0.7539
s 1
f 127//118 125//119 124//120
f 127//118 126//121 125//119
o BezierCurve.018_CUBezierCurve.111
v -0.152219 0.112887 0.479216
v -0.104791 0.119944 0.511931
v -0.134572 0.085735 0.463852
v -0.091963 0.092479 0.493751
vn -0.3769 -0.6280 0.6808
vn -0.3770 -0.6286 0.6802
vn -0.3771 -0.6295 0.6793
vn -0.3768 -0.6272 0.6816
s 1
f 131//122 128//123 130//124
f 131//122 129//125 128//123
o BezierCurve.017_CUBezierCurve.110
v -0.192111 0.101781 0.435234
v -0.170288 0.075077 0.423880
v -0.152219 0.112887 0.479216
v -0.134572 0.085735 0.463852
vn -0.4767 -0.6458 0.5964
vn -0.4769 -0.6450 0.5971
vn -0.4770 -0.6441 0.5980
vn -0.4765 -0.6467 0.5955
s 1
f 135//126 132//127 133//128
f 135//126 134//129 132//127
o BezierCurve.016_CUBezierCurve.109
v -0.173656 0.125613 0.412430
v -0.192111 0.101781 0.435234
v -0.152219 0.112887 0.479216
v -0.137999 0.135069 0.452446
vn -0.5684 0.7550 0.3269
vn -0.5684 0.7555 0.3259
vn -0.5685 0.7544 0.3283
vn -0.5683 0.7560 0.3246
s 1
f 137//130 139//131 136//132
f 137//130 138//133 139//131
o BezierCurve.015_CUBezierCurve.108
v -0.222174 0.087587 0.381054
v -0.197063 0.061500 0.374788
v -0.192111 0.101781 0.435234
v -0.170288 0.075077 0.423880
vn -0.5639 -0.6657 0.4887
vn -0.5646 -0.6641 0.4900
vn -0.5654 -0.6623 0.4915
vn -0.5631 -0.6674 0.4873
s 1
f 143//134 140//135 141//136
f 143//134 142//137 140//135
o BezierCurve.014_CUBezierCurve.107
v -0.200429 0.113745 0.366349
v -0.222174 0.087587 0.381054
v -0.173656 0.125613 0.412430
v -0.192111 0.101781 0.435234
vn -0.6833 0.6996 0.2087
vn -0.6814 0.7039 0.2006
vn -0.6858 0.6937 0.2198
vn -0.6791 0.7087 0.1911
s 1
f 145//138 146//139 144//140
f 145//138 147//141 146//139
o BezierCurve.013_CUBezierCurve.106
v -0.240077 0.072247 0.317818
v -0.222174 0.087587 0.381054
v -0.197063 0.061500 0.374788
v -0.212842 0.046666 0.317481
vn -0.6344 -0.6897 0.3489
vn -0.6363 -0.6870 0.3508
vn -0.6383 -0.6842 0.3528
vn -0.6326 -0.6923 0.3470
s 1
f 150//142 148//143 151//144
f 150//142 149//145 148//143
o BezierCurve.012_CUBezierCurve.105
v -0.216247 0.100281 0.308933
v -0.240077 0.072247 0.317818
v -0.200429 0.113745 0.366349
v -0.222174 0.087587 0.381054
vn -0.7527 0.6562 0.0536
vn -0.7525 0.6564 0.0537
vn -0.7523 0.6565 0.0537
vn -0.7529 0.6560 0.0536
s 1
f 155//146 152//147 153//148
f 155//146 154//149 152//147
o BezierCurve.011_CUBezierCurve.104
v -0.243609 0.058146 0.246866
v -0.240077 0.072247 0.317818
v -0.215590 0.032547 0.252860
v -0.212842 0.046666 0.317481
vn -0.6762 -0.7147 0.1784
vn -0.6804 -0.7101 0.1810
vn -0.6841 -0.7059 0.1833
vn -0.6727 -0.7185 0.1763
s 1
f 159//150 156//151 158//152
f 159//150 157//153 156//151
o BezierCurve.010_CUBezierCurve.103
v -0.219056 0.087567 0.244163
v -0.243609 0.058146 0.246866
v -0.216247 0.100281 0.308933
v -0.240077 0.072247 0.317818
vn -0.7714 0.6301 -0.0891
vn -0.7700 0.6319 -0.0883
vn -0.7687 0.6335 -0.0876
vn -0.7727 0.6283 -0.0898
s 1
f 163//154 160//155 161//156
f 163//154 162//157 160//155
o BezierCurve.009_CUBezierCurve.102
v -0.230846 0.046741 0.169753
v -0.213383 0.021291 0.181822
v -0.243609 0.058146 0.246866
v -0.215590 0.032547 0.252860
vn -0.7815 -0.6239 -0.0096
vn -0.7224 -0.6893 0.0548
vn -0.8127 -0.5807 -0.0486
vn -0.6824 -0.7249 0.0937
s 1
f 165//158 166//159 164//160
f 165//158 167//161 166//159
o BezierCurve.008_CUBezierCurve.101
v -0.230846 0.046741 0.169753
v -0.219056 0.087567 0.244163
v -0.243609 0.058146 0.246866
v -0.206847 0.077254 0.172997
vn -0.7580 0.6146 -0.2182
vn -0.7569 0.6164 -0.2172
vn -0.7560 0.6177 -0.2165
vn -0.7589 0.6132 -0.2191
s 1
f 170//162 171//163 168//164
f 170//162 169//165 171//163
o BezierCurve.007_CUBezierCurve.100
v -0.216644 0.036244 0.088226
v -0.209946 0.011225 0.105699
v -0.230846 0.046741 0.169753
v -0.213383 0.021291 0.181822
vn -0.9194 -0.3836 -0.0873
vn -0.8605 -0.5094 0.0017
vn -0.9349 -0.3340 -0.1198
vn -0.8318 -0.5538 0.0357
s 1
f 173//166 174//167 172//168
f 173//166 175//169 174//167
o BezierCurve.006_CUBezierCurve.099
v -0.216644 0.036244 0.088226
v -0.230846 0.046741 0.169753
v -0.173656 0.125613 0.412430
v -0.177654 0.067353 0.096818
v -0.206847 0.077254 0.172997
v -0.137999 0.135069 0.452446
vn -0.6764 0.6710 -0.3037
vn -0.6254 0.7402 -0.2469
vn -0.5830 0.7867 -0.2028
vn -0.7168 0.6013 -0.3529
s 1
f 177//170 179//171 176//172
f 177//170 180//173 179//171
l 178 181
o BezierCurve.005_CUBezierCurve.098
v -0.196883 0.021858 -0.217138
v -0.198447 0.016293 -0.262458
v -0.188094 0.041526 -0.226492
v -0.189854 0.036801 -0.264976
vn -0.9203 0.3909 -0.0093
vn -0.9178 0.3967 -0.0141
vn -0.9225 0.3859 -0.0052
vn -0.9159 0.4009 -0.0176
s 1
f 183//174 184//175 185//176
f 183//174 182//177 184//175
o BezierCurve.004_CUBezierCurve.097
v -0.175443 0.003552 -0.274812
v -0.195387 0.003089 -0.272572
v -0.175443 0.033148 -0.278446
v -0.195387 0.032686 -0.276206
vn 0.1081 0.1212 0.9867
s off
f 189//178 186//178 188//178
f 189//178 187//178 186//178
