# Blender v2.79 (sub 0) OBJ File: 'pinball.blend'
# www.blender.org
o Circle.016_Circle.117
v 0.000000 -0.014781 0.010470
v -0.065121 -0.014781 0.000000
v -0.063610 -0.014781 0.004704
v 0.000000 0.014781 0.010470
v -0.065121 0.014781 0.000000
v -0.063610 0.014781 0.004704
v 0.000000 -0.014781 -0.010470
v -0.065121 -0.014781 0.000000
v -0.063610 -0.014781 -0.004704
v 0.000000 0.014781 -0.010470
v -0.065121 0.014781 0.000000
v -0.063610 0.014781 -0.004704
v 0.003689 -0.014781 0.010427
v 0.003689 0.014781 0.010427
v 0.003689 -0.014781 -0.010427
v 0.003689 0.014781 -0.010427
vn -0.9521 0.0000 0.3058
vn -0.0903 0.0000 0.9959
vn -0.9521 0.0000 -0.3058
vn -0.0903 0.0000 -0.9959
vn 0.0116 0.0000 0.9999
vn 0.0116 0.0000 -0.9999
s off
f 3//1 5//1 2//1
f 1//2 6//2 3//2
f 11//3 9//3 8//3
f 12//4 7//4 9//4
f 13//5 4//5 1//5
f 10//6 15//6 7//6
f 3//1 6//1 5//1
f 1//2 4//2 6//2
f 11//3 12//3 9//3
f 12//4 10//4 7//4
f 13//5 14//5 4//5
f 10//6 16//6 15//6
l 5 11
l 2 8
