# Blender v2.79 (sub 0) OBJ File: 'pinball.blend'
# www.blender.org
o Cube.009
v 0.214709 -0.000661 -0.005386
v 0.214709 0.020642 -0.008002
v 0.207716 0.001812 0.014755
v 0.207716 0.023115 0.012140
v 0.208761 -0.000911 -0.007420
v 0.208761 0.020392 -0.010036
v 0.201768 0.001562 0.012721
v 0.201768 0.022865 0.010105
vt 0.595858 0.234161
vt 0.829165 0.140839
vt 0.829165 0.234161
vt 0.583983 0.646483
vt 0.416017 0.478517
vt 0.583983 0.478517
vt 0.362552 0.140839
vt 0.129246 0.234161
vt 0.129246 0.140839
vt 0.595858 0.140839
vt 0.416017 0.646483
vt 0.362552 0.234161
vn -0.3258 0.1152 0.9384
vn -0.9454 -0.0397 -0.3234
vn 0.3258 -0.1152 -0.9384
vn 0.0000 0.9925 -0.1219
s off
f 4/1/1 7/2/1 3/3/1
f 8/4/2 5/5/2 7/6/2
f 6/7/3 1/8/3 5/9/3
f 4/1/4 6/7/4 8/10/4
f 4/1/1 8/10/1 7/2/1
f 8/4/2 6/11/2 5/5/2
f 6/7/3 2/12/3 1/8/3
f 4/1/4 2/12/4 6/7/4
o Cube.008
v 0.223101 -0.003629 -0.029555
v 0.223101 0.017675 -0.032171
v 0.216108 -0.001156 -0.009414
v 0.216108 0.020148 -0.012030
v 0.217153 -0.003879 -0.031590
v 0.217153 0.017425 -0.034205
v 0.210160 -0.001406 -0.011449
v 0.210160 0.019898 -0.014064
vt 0.595858 0.234161
vt 0.829165 0.140839
vt 0.829165 0.234161
vt 0.583983 0.646483
vt 0.416017 0.478517
vt 0.583983 0.478517
vt 0.362552 0.140839
vt 0.129246 0.234161
vt 0.129246 0.140839
vt 0.595858 0.140839
vt 0.416017 0.646483
vt 0.362552 0.234161
vn -0.3258 0.1152 0.9384
vn -0.9454 -0.0397 -0.3234
vn 0.3258 -0.1152 -0.9384
vn -0.0000 0.9925 -0.1219
s off
f 12/13/5 15/14/5 11/15/5
f 16/16/6 13/17/6 15/18/6
f 14/19/7 9/20/7 13/21/7
f 12/13/8 14/19/8 16/22/8
f 12/13/5 16/22/5 15/14/5
f 16/16/6 14/23/6 13/17/6
f 14/19/7 10/24/7 9/20/7
f 12/13/8 10/24/8 14/19/8
o Cube.007
v 0.231492 -0.006597 -0.053725
v 0.231492 0.014707 -0.056340
v 0.224499 -0.004124 -0.033583
v 0.224499 0.017180 -0.036199
v 0.225544 -0.006846 -0.055759
v 0.225544 0.014457 -0.058375
v 0.218551 -0.004373 -0.035618
v 0.218551 0.016930 -0.038234
vt 0.595858 0.234161
vt 0.829165 0.140839
vt 0.829165 0.234161
vt 0.583983 0.646483
vt 0.416017 0.478517
vt 0.583983 0.478517
vt 0.362552 0.140839
vt 0.129246 0.234161
vt 0.129246 0.140839
vt 0.595858 0.140839
vt 0.416017 0.646483
vt 0.362552 0.234161
vn -0.3258 0.1152 0.9384
vn -0.9454 -0.0397 -0.3234
vn 0.3258 -0.1152 -0.9384
vn -0.0000 0.9925 -0.1219
s off
f 20/25/9 23/26/9 19/27/9
f 24/28/10 21/29/10 23/30/10
f 22/31/11 17/32/11 21/33/11
f 20/25/12 22/31/12 24/34/12
f 20/25/9 24/34/9 23/26/9
f 24/28/10 22/35/10 21/29/10
f 22/31/11 18/36/11 17/32/11
f 20/25/12 18/36/12 22/31/12
o Cube.006
v 0.239884 -0.009564 -0.077894
v 0.239884 0.011739 -0.080510
v 0.232891 -0.007091 -0.057753
v 0.232891 0.014212 -0.060369
v 0.233935 -0.009814 -0.079929
v 0.233935 0.011490 -0.082544
v 0.226943 -0.007341 -0.059787
v 0.226943 0.013963 -0.062403
vt 0.595858 0.234161
vt 0.829165 0.140839
vt 0.829165 0.234161
vt 0.583983 0.646483
vt 0.416017 0.478517
vt 0.583983 0.478517
vt 0.362552 0.140839
vt 0.129246 0.234161
vt 0.129246 0.140839
vt 0.595858 0.140839
vt 0.416017 0.646483
vt 0.362552 0.234161
vn -0.3258 0.1152 0.9384
vn -0.9454 -0.0397 -0.3234
vn 0.3258 -0.1152 -0.9384
vn -0.0000 0.9925 -0.1219
s off
f 28/37/13 31/38/13 27/39/13
f 32/40/14 29/41/14 31/42/14
f 30/43/15 25/44/15 29/45/15
f 28/37/16 30/43/16 32/46/16
f 28/37/13 32/46/13 31/38/13
f 32/40/14 30/47/14 29/41/14
f 30/43/15 26/48/15 25/44/15
f 28/37/16 26/48/16 30/43/16
