# Blender v2.79 (sub 0) OBJ File: 'pinball.blend'
# www.blender.org
o Plane.016_Plane.004
v 0.189926 -0.033726 -0.274675
v 0.187013 -0.033726 -0.274675
v 0.189926 -0.026436 -0.215305
v 0.187013 -0.026436 -0.215305
v 0.189926 0.002906 -0.218908
v 0.189926 -0.004383 -0.278278
v 0.187013 -0.004383 -0.278278
v 0.187013 0.002906 -0.218908
vn 0.0000 -0.9925 0.1219
vn 0.0000 0.9925 -0.1219
vn 0.0000 0.1219 0.9925
vn 0.0000 -0.1219 -0.9925
vn -1.0000 0.0000 0.0000
vn 1.0000 0.0000 0.0000
s off
f 3//1 2//1 1//1
f 7//2 5//2 6//2
f 3//3 8//3 4//3
f 2//4 6//4 1//4
f 4//5 7//5 2//5
f 1//6 5//6 3//6
f 3//1 4//1 2//1
f 7//2 8//2 5//2
f 3//3 5//3 8//3
f 2//4 7//4 6//4
f 4//5 8//5 7//5
f 1//6 6//6 5//6
o Plane.013_Plane.020
v 0.147535 -0.024225 -0.197295
v 0.157080 -0.024828 -0.202210
v 0.136453 -0.024708 -0.201232
v 0.096296 -0.038493 -0.313502
v 0.100800 -0.039726 -0.323541
v 0.110470 -0.040174 -0.327190
v 0.155189 -0.036488 -0.297173
v 0.136453 0.004634 -0.204834
v 0.147535 0.005118 -0.200898
v 0.157080 0.004514 -0.205813
v 0.110470 -0.010831 -0.330792
v 0.100800 -0.010383 -0.327144
v 0.096296 -0.009151 -0.317105
v 0.155189 -0.007146 -0.300776
vn -0.0000 0.9925 -0.1219
vn 0.5602 -0.1010 -0.8222
vn -0.3553 -0.1139 -0.9278
vn -0.3370 0.1147 0.9345
vn 0.9998 -0.0024 -0.0196
vn -0.9135 -0.0496 -0.4038
vn 0.4605 0.1082 0.8810
s off
f 21//7 16//7 22//7
f 14//8 22//8 15//8
f 13//9 19//9 14//9
f 9//10 16//10 11//10
f 15//11 18//11 10//11
f 12//12 20//12 13//12
f 10//13 17//13 9//13
f 18//7 22//7 16//7
f 22//7 19//7 21//7
f 18//7 16//7 17//7
f 19//7 20//7 21//7
f 14//8 19//8 22//8
f 13//9 20//9 19//9
f 9//10 17//10 16//10
f 15//11 22//11 18//11
f 12//12 21//12 20//12
f 10//13 18//13 17//13
o Plane.012_Plane.018
v -0.206389 -0.037431 -0.304848
v -0.096525 -0.046700 -0.380344
v -0.206389 -0.008088 -0.308451
v -0.096525 -0.017358 -0.383946
vn 0.5692 0.1002 0.8161
s off
f 23//14 26//14 25//14
f 23//14 24//14 26//14
o Plane.011_Plane.017
v -0.203308 -0.037177 -0.302782
v -0.203308 -0.026169 -0.213130
v -0.206389 -0.026169 -0.213130
v -0.206389 -0.037177 -0.302782
v -0.203308 -0.007835 -0.306385
v -0.203308 0.003173 -0.216733
v -0.206389 -0.007835 -0.306385
v -0.206389 0.003173 -0.216733
vn 0.0000 -0.9925 0.1219
vn 0.0000 0.9925 -0.1219
vn -1.0000 0.0000 0.0000
vn 0.0000 -0.1219 -0.9925
vn 0.0000 0.1219 0.9925
vn 1.0000 -0.0000 0.0000
s off
f 29//15 27//15 28//15
f 31//16 34//16 32//16
f 29//17 33//17 30//17
f 30//18 31//18 27//18
f 28//19 34//19 29//19
f 27//20 32//20 28//20
f 29//15 30//15 27//15
f 31//16 33//16 34//16
f 29//17 34//17 33//17
f 30//18 33//18 31//18
f 28//19 32//19 34//19
f 27//20 31//20 32//20
o Plane.008_Plane.014
v 0.221701 -0.035935 -0.292667
v 0.096525 -0.046700 -0.380344
v 0.221701 -0.006593 -0.296270
v 0.096525 -0.017358 -0.383946
vn -0.5766 0.0996 0.8110
s off
f 35//21 38//21 36//21
f 35//21 37//21 38//21
o Plane.007_Plane.013
v 0.247120 -0.037381 -0.304446
v 0.221701 -0.035804 -0.291597
v 0.233292 -0.023640 -0.192531
v 0.221701 -0.024531 -0.199790
v 0.247120 -0.025636 -0.208785
v 0.247120 -0.008039 -0.308049
v 0.221701 -0.006461 -0.295199
v 0.221701 0.004811 -0.203393
v 0.233292 0.005703 -0.196134
v 0.247120 0.003707 -0.212388
v 0.242346 0.004978 -0.202037
v 0.242346 -0.024365 -0.198435
vn 0.0000 -0.9925 0.1219
vn -0.0000 0.9925 -0.1219
vn -0.4538 -0.1086 -0.8844
vn -1.0000 0.0000 0.0000
vn -0.5336 0.1031 0.8394
vn 1.0000 0.0000 0.0000
vn 0.9092 0.0507 0.4132
vn 0.5491 0.1019 0.8295
s off
f 42//22 40//22 43//22
f 48//23 46//23 49//23
f 39//24 45//24 44//24
f 40//25 46//25 45//25
f 41//26 46//26 42//26
f 39//27 48//27 43//27
f 43//28 49//28 50//28
f 41//29 49//29 47//29
f 40//22 39//22 43//22
f 43//22 50//22 42//22
f 50//22 41//22 42//22
f 48//23 44//23 45//23
f 45//23 46//23 48//23
f 46//23 47//23 49//23
f 39//24 40//24 45//24
f 40//25 42//25 46//25
f 41//26 47//26 46//26
f 39//27 44//27 48//27
f 43//28 48//28 49//28
f 41//29 50//29 49//29
o Plane.006_Plane.012
v 0.280766 -0.058280 -0.474651
v 0.056355 -0.058280 -0.474651
v 0.280766 -0.039262 -0.319760
v 0.280766 -0.009919 -0.323363
v 0.280766 -0.028937 -0.478254
v 0.056355 -0.028937 -0.478254
vn 0.0000 -0.9925 0.1219
vn 0.0000 0.9925 -0.1219
vn 1.0000 -0.0000 0.0000
vn 0.0000 -0.1219 -0.9925
vn -0.5709 0.1001 0.8149
s off
f 51//30 53//30 52//30
f 55//31 56//31 54//31
f 53//32 55//32 54//32
f 52//33 55//33 51//33
f 53//34 56//34 52//34
f 53//32 51//32 55//32
f 52//33 56//33 55//33
f 53//34 54//34 56//34
o Plane.005_Plane.011
v -0.280766 -0.058280 -0.474651
v -0.056355 -0.058280 -0.474651
v -0.280766 -0.039262 -0.319760
v -0.280766 -0.009919 -0.323363
v -0.280766 -0.028937 -0.478254
v -0.056355 -0.028937 -0.478254
vn 0.0000 -0.9925 0.1219
vn 0.0000 0.9925 -0.1219
vn -1.0000 0.0000 0.0000
vn 0.0000 -0.1219 -0.9925
vn 0.5709 0.1001 0.8149
s off
f 57//35 58//35 59//35
f 61//36 60//36 62//36
f 59//37 61//37 57//37
f 57//38 62//38 58//38
f 59//39 62//39 60//39
f 59//37 60//37 61//37
f 57//38 61//38 62//38
f 59//39 58//39 62//39
o Plane.009_Plane.019
v -0.147535 -0.024225 -0.197295
v -0.157080 -0.024828 -0.202210
v -0.136453 -0.024708 -0.201232
v -0.096296 -0.038493 -0.313502
v -0.100800 -0.039726 -0.323541
v -0.110470 -0.040174 -0.327190
v -0.155189 -0.036488 -0.297173
v -0.136453 0.004634 -0.204834
v -0.147535 0.005118 -0.200898
v -0.157080 0.004514 -0.205813
v -0.110470 -0.010831 -0.330792
v -0.100800 -0.010383 -0.327144
v -0.096296 -0.009151 -0.317105
v -0.155189 -0.007146 -0.300776
vn -0.0000 0.9925 -0.1219
vn -0.5602 -0.1010 -0.8222
vn 0.3553 -0.1139 -0.9278
vn 0.3370 0.1147 0.9345
vn -0.9998 -0.0024 -0.0196
vn 0.9135 -0.0496 -0.4038
vn -0.4605 0.1082 0.8810
s off
f 70//40 75//40 76//40
f 69//41 73//41 68//41
f 73//42 67//42 68//42
f 65//43 71//43 63//43
f 72//44 69//44 64//44
f 74//45 66//45 67//45
f 63//46 72//46 64//46
f 73//40 76//40 75//40
f 76//40 72//40 70//40
f 73//40 75//40 74//40
f 72//40 71//40 70//40
f 69//41 76//41 73//41
f 73//42 74//42 67//42
f 65//43 70//43 71//43
f 72//44 76//44 69//44
f 74//45 75//45 66//45
f 63//46 71//46 72//46
