# Blender v2.79 (sub 0) OBJ File: 'table2.blend'
# www.blender.org
g Right.004_Cube.009
v 12.100000 0.000000 -6.150000
v 12.100000 1.000000 -6.150000
v 12.100000 0.000000 6.150000
v 12.100000 1.000000 6.150000
v 12.100000 0.000000 0.000000
v 12.100000 1.000000 0.000000
v 12.959309 0.000000 -6.990686
v 12.959309 1.000000 -6.990686
v 12.953381 0.000000 6.996618
v 12.953381 1.000000 6.996618
vt 0.500000 0.000000
vt 0.666667 0.333333
vt 0.500000 0.333333
vt 0.333333 0.000000
vt 0.333333 0.333333
vt 0.333333 0.000000
vt 0.666667 0.000000
vt 0.666667 0.333333
vt 0.333333 0.333333
vt 0.666667 0.000000
vn -1.0000 0.0000 0.0000
vn -0.7043 0.0000 0.7099
vn -0.6993 0.0000 -0.7148
s off
f 6/1/1 1/2/1 5/3/1
f 4/4/1 5/3/1 3/5/1
f 3/5/2 10/6/2 4/4/2
f 2/7/3 7/8/3 1/2/3
f 6/1/1 2/7/1 1/2/1
f 4/4/1 6/1/1 5/3/1
f 3/5/2 9/9/2 10/6/2
f 2/7/3 8/10/3 7/8/3
g Right.003_Cube.008
v 11.400000 0.000000 -6.850000
v 11.400000 1.000000 -6.850000
v -11.400000 0.000000 -6.850000
v -11.400000 1.000000 -6.850000
v 0.000000 0.000000 -6.850000
v 0.000000 1.000000 -6.850000
v 12.240691 0.000000 -7.709307
v 12.240691 1.000000 -7.709307
v -12.274190 0.000000 -7.675805
v -12.274190 1.000000 -7.675805
vt 0.000000 0.500000
vt 0.333333 0.333333
vt 0.333333 0.500000
vt 0.000000 0.666667
vt 0.333333 0.666667
vt 0.000000 0.333333
vt 0.333333 0.333333
vt 0.000000 0.666667
vt 0.000000 0.333333
vt 0.333333 0.666667
vn 0.0000 0.0000 1.0000
vn -0.6867 0.0000 0.7269
vn 0.7148 0.0000 0.6993
s off
f 16/11/4 13/12/4 15/13/4
f 12/14/4 15/13/4 11/15/4
f 14/16/5 19/17/5 13/12/5
f 11/15/6 18/18/6 12/14/6
f 16/11/4 14/16/4 13/12/4
f 12/14/4 16/11/4 15/13/4
f 14/16/5 20/19/5 19/17/5
f 11/15/6 17/20/6 18/18/6
g Right.002_Cube.007
v -12.100000 0.000000 -6.150000
v -12.100000 1.000000 -6.150000
v -12.100000 0.000000 6.150000
v -12.100000 1.000000 6.150000
v -12.100000 0.000000 0.000000
v -12.100000 1.000000 0.000000
v -12.925804 0.000000 -7.024192
v -12.925804 1.000000 -7.024192
v -12.965479 0.000000 6.984517
v -12.965479 1.000000 6.984517
vt 0.000000 0.500000
vt 0.333333 0.333333
vt 0.333333 0.500000
vt 0.000000 0.666667
vt 0.333333 0.666667
vt 0.000000 0.333333
vt 0.333333 0.333333
vt 0.000000 0.666667
vt 0.000000 0.333333
vt 0.333333 0.666667
vn 1.0000 0.0000 0.0000
vn 0.6941 0.0000 0.7199
vn 0.7269 0.0000 -0.6867
s off
f 26/21/7 23/22/7 25/23/7
f 22/24/7 25/23/7 21/25/7
f 24/26/8 29/27/8 23/22/8
f 21/25/9 28/28/9 22/24/9
f 26/21/7 24/26/7 23/22/7
f 22/24/7 26/21/7 25/23/7
f 24/26/8 30/29/8 29/27/8
f 21/25/9 27/30/9 28/28/9
g Right.001_Cube.006
v 11.400000 0.000000 6.850000
v 11.400000 1.000000 6.850000
v -11.400000 0.000000 6.850000
v -11.400000 1.000000 6.850000
v 0.000000 0.000000 6.850000
v 0.000000 1.000000 6.850000
v 12.246606 0.000000 7.703382
v 12.246606 1.000000 7.703382
v -12.234522 0.000000 7.715477
v -12.234522 1.000000 7.715477
vt 0.499936 0.261872
vt -5.017924 -0.222142
vt 0.499934 -0.222151
vt 6.017822 0.261864
vt 6.017821 -0.222162
vt 6.599757 0.261863
vt -5.017923 0.261879
vt -5.599757 -0.222142
vt 6.599756 -0.222163
vt -5.599757 0.261879
vn 0.0000 0.0000 -1.0000
vn -0.7199 0.0000 -0.6941
vn 0.7099 0.0000 -0.7043
s off
f 36/31/10 31/32/10 35/33/10
f 34/34/10 35/33/10 33/35/10
f 33/35/11 40/36/11 34/34/11
f 32/37/12 37/38/12 31/32/12
f 36/31/10 32/37/10 31/32/10
f 34/34/10 36/31/10 35/33/10
f 33/35/11 39/39/11 40/36/11
f 32/37/12 38/40/12 37/38/12
g Plate_Cube.001
v -11.399993 -0.000000 -6.849997
v -11.400000 0.000000 6.849995
v 11.400013 -0.000000 -6.849993
v 11.400000 0.000000 6.850000
v -12.099999 0.000000 6.150000
v 12.099988 0.000000 6.150006
v -11.399999 0.000000 6.150001
v 11.400002 0.000000 6.150006
v 12.099997 -0.000000 -6.150000
v -11.399994 -0.000000 -6.150004
v 11.400010 -0.000000 -6.150000
v -12.099995 -0.000000 -6.150004
vt 2.315820 4.499398
vt 2.547184 4.268030
vt 2.315820 4.268030
vt 2.547188 -3.268013
vt 2.315820 -3.268014
vt -1.981013 4.268032
vt -1.749649 4.499398
vt -1.749649 4.268032
vt -1.749642 -3.268026
vt 2.315821 -3.499378
vt -1.749642 -3.499398
vt -1.981013 -3.268027
vn 0.0000 1.0000 -0.0000
s off
f 45/41/13 42/42/13 47/43/13
f 47/43/13 44/44/13 48/45/13
f 41/46/13 52/47/13 50/48/13
f 51/49/13 46/50/13 49/51/13
f 50/48/13 48/45/13 51/49/13
f 52/47/13 47/43/13 50/48/13
f 51/49/13 49/51/13 43/52/13
f 41/46/13 51/49/13 43/52/13
f 48/45/13 44/44/13 46/50/13
f 47/43/13 42/42/13 44/44/13
f 51/49/13 48/45/13 46/50/13
f 50/48/13 47/43/13 48/45/13
f 52/47/13 45/41/13 47/43/13
f 41/46/13 50/48/13 51/49/13
